<svg width="43" height="43" viewBox="0 0 43 43" fill="none" xmlns="http://www.w3.org/2000/svg">
<g clip-path="url(#clip0)">
<path d="M41.0241 21.5015L42.9106 16.581C43.1175 16.0381 42.9563 15.4227 42.5021 15.0546L38.412 11.7384L37.5843 6.5331C37.493 5.95801 37.0415 5.50923 36.4664 5.41786L31.2611 4.59017L27.9476 0.497386C27.5821 0.0432297 26.9533 -0.118009 26.4239 0.0889141L21.5007 1.9781L16.5803 0.0916014C16.0347 -0.118009 15.4247 0.0486044 15.0566 0.500074L11.7404 4.59286L6.53507 5.42055C5.96268 5.51192 5.51121 5.96339 5.41984 6.53579L4.59215 11.7411L0.499363 15.0573C0.0478937 15.4227 -0.116033 16.0381 0.0908908 16.581L1.97739 21.5015L0.0908908 26.4219C-0.11872 26.9648 0.0478937 27.5802 0.499363 27.9456L4.59215 31.2591L5.41984 36.4644C5.51121 37.0395 5.95999 37.491 6.53507 37.5824L11.7404 38.4101L15.0566 42.5002C15.4247 42.957 16.0401 43.1182 16.583 42.9086L21.5007 41.0248L26.4212 42.9113C26.5771 42.9704 26.7383 43 26.9022 43C27.2973 43 27.6869 42.8253 27.9476 42.5002L31.2611 38.4101L36.4664 37.5824C37.0415 37.491 37.493 37.0395 37.5843 36.4644L38.412 31.2591L42.5021 27.9456C42.9563 27.5775 43.1175 26.9648 42.9106 26.4219L41.0241 21.5015Z" fill="#F44336"/>
<path d="M17.4694 18.8146C15.247 18.8146 13.4384 17.006 13.4384 14.7836C13.4384 12.5612 15.247 10.7526 17.4694 10.7526C19.6918 10.7526 21.5004 12.5612 21.5004 14.7836C21.5004 17.006 19.6918 18.8146 17.4694 18.8146ZM17.4694 13.4399C16.7277 13.4399 16.1257 14.0419 16.1257 14.7836C16.1257 15.5253 16.7277 16.1273 17.4694 16.1273C18.2111 16.1273 18.813 15.5253 18.813 14.7836C18.813 14.0419 18.2111 13.4399 17.4694 13.4399Z" fill="#FAFAFA"/>
<path d="M25.5313 32.2507C23.3089 32.2507 21.5004 30.4422 21.5004 28.2198C21.5004 25.9974 23.3089 24.1888 25.5313 24.1888C27.7537 24.1888 29.5623 25.9974 29.5623 28.2198C29.5623 30.4422 27.7537 32.2507 25.5313 32.2507ZM25.5313 26.8761C24.7923 26.8761 24.1877 27.4808 24.1877 28.2198C24.1877 28.9588 24.7923 29.5634 25.5313 29.5634C26.2704 29.5634 26.875 28.9588 26.875 28.2198C26.875 27.4808 26.2704 26.8761 25.5313 26.8761Z" fill="#FAFAFA"/>
<path d="M14.7828 32.2507C14.5113 32.2507 14.2399 32.1701 14.0034 32.0008C13.3988 31.5682 13.2591 30.7297 13.6917 30.1251L27.1283 11.3139C27.561 10.7092 28.3994 10.5695 29.004 11.0021C29.6087 11.4321 29.7457 12.2732 29.3158 12.8752L15.8792 31.6864C15.6131 32.0546 15.202 32.2507 14.7828 32.2507Z" fill="#FAFAFA"/>
</g>
<defs>
<clipPath id="clip0">
<rect width="43" height="43" fill="white"/>
</clipPath>
</defs>
</svg>
