<?xml version="1.0" standalone="no"?>
<!DOCTYPE svg PUBLIC "-//W3C//DTD SVG 20010904//EN"
 "http://www.w3.org/TR/2001/REC-SVG-20010904/DTD/svg10.dtd">
<svg version="1.0" xmlns="http://www.w3.org/2000/svg"
 width="131.000000pt" height="131.000000pt" viewBox="0 0 131.000000 131.000000"
 preserveAspectRatio="xMidYMid meet">
<metadata>
Created by potrace 1.11, written by Peter Selinger 2001-2013
</metadata>
<g transform="translate(0.000000,131.000000) scale(0.100000,-0.100000)"
fill="#000000" stroke="none">
<path d="M574 1196 c-4 -12 -11 -13 -31 -5 -41 15 -49 -4 -20 -43 l26 -34 -54
-32 c-106 -64 -156 -161 -151 -293 3 -59 11 -91 35 -142 16 -37 35 -67 40 -67
6 0 26 -13 44 -30 46 -40 172 -93 200 -84 11 4 41 7 66 9 59 2 120 15 127 26
3 5 27 9 54 9 66 0 161 31 208 69 42 33 97 99 89 107 -2 3 -21 -5 -41 -17 -38
-22 -149 -38 -159 -22 -3 5 0 27 7 48 8 21 12 52 10 69 -12 94 -16 111 -33
135 -10 14 -21 43 -24 63 -12 76 -57 140 -77 108 -9 -14 -2 -77 11 -102 11
-21 11 -28 0 -28 -5 0 -12 12 -16 28 -9 36 -34 74 -45 67 -8 -5 -7 -28 4 -63
5 -14 -2 -17 -29 -19 -19 -1 -48 -10 -64 -19 -55 -33 -82 6 -36 51 l24 25 -22
1 c-12 0 4 6 36 13 63 14 102 44 111 86 4 14 2 32 -3 39 -8 13 -14 12 -43 -3
-28 -14 -43 -16 -98 -8 -36 5 -70 7 -77 5 -6 -3 -19 9 -27 26 -20 37 -34 47
-42 27z"/>
<path d="M158 650 c-113 -93 -184 -324 -128 -415 12 -19 17 -35 12 -35 -13 0
-42 -28 -42 -41 0 -6 14 -8 31 -5 22 3 48 -4 89 -25 32 -16 67 -29 80 -29 30
0 89 29 103 51 10 16 12 15 24 -11 6 -17 19 -31 28 -31 8 -1 21 -2 28 -3 14
-3 66 22 82 38 31 33 46 121 25 142 -7 7 -2 14 16 23 29 13 28 19 10 -75 -6
-29 20 -64 48 -64 12 0 32 9 45 21 l22 21 20 -21 c27 -29 55 -26 88 7 l28 27
17 -22 c33 -44 91 -42 145 3 l31 26 9 -25 c16 -40 71 -50 121 -20 28 16 70 79
70 105 0 8 22 22 50 32 43 15 98 61 87 73 -2 1 -26 -4 -53 -12 -27 -8 -50 -15
-51 -15 -2 0 -3 12 -3 28 0 37 -12 52 -41 55 -13 1 -34 8 -46 15 -20 11 -26 9
-54 -20 -17 -18 -37 -45 -45 -60 -19 -37 -32 -35 -26 2 12 83 -86 93 -157 16
-27 -29 -54 -35 -44 -11 7 21 -25 55 -51 55 -15 0 -25 -10 -33 -30 -6 -17 -19
-30 -28 -30 -9 0 -14 4 -11 8 11 18 -26 53 -52 50 -21 -2 -29 -11 -36 -38 -10
-34 -22 -50 -40 -50 -6 0 -5 5 2 12 20 20 15 75 -9 91 -26 19 -77 12 -105 -14
-21 -20 -39 -26 -30 -10 11 17 18 84 12 116 -8 39 -51 85 -80 85 -80 -2 -152
-134 -95 -174 25 -17 48 -11 47 12 -2 27 33 92 49 92 25 0 9 -79 -34 -165 -66
-134 -164 -219 -193 -166 -22 42 0 145 55 258 33 68 58 96 115 134 21 14 23
18 11 33 -22 26 -72 20 -113 -14z m307 -260 c-15 -16 -16 -22 -5 -35 20 -24 2
-32 -20 -9 -18 18 -19 21 -4 42 8 12 22 22 31 22 14 0 14 -2 -2 -20z m439 -14
c-6 -16 -24 -23 -24 -8 0 10 22 33 27 28 2 -2 1 -11 -3 -20z m-547 -22 c-3 -4
1 -23 9 -43 l15 -36 -58 -56 c-60 -58 -74 -63 -134 -44 -22 7 -22 8 7 20 44
18 90 61 125 116 18 27 35 49 37 49 3 0 3 -3 -1 -6z m300 -12 c8 -5 0 -22 -25
-55 -43 -55 -52 -48 -23 18 20 46 27 51 48 37z m113 -19 c0 -11 -52 -84 -57
-79 -9 8 30 86 43 86 8 0 14 -3 14 -7z m100 -22 c0 -19 41 -23 65 -7 15 10 25
12 25 6 0 -18 -61 -68 -79 -66 -19 3 -41 43 -34 62 6 16 23 19 23 5z m220 -5
c0 -2 -10 -23 -22 -46 -24 -45 -34 -39 -24 16 5 25 12 34 26 34 11 0 20 -2 20
-4z m-667 -87 c-6 -23 -31 -44 -40 -35 -4 4 1 22 12 42 19 35 37 30 28 -7z"/>
</g>
</svg>
