<svg width="52" height="32" viewBox="0 0 52 32" fill="none" xmlns="http://www.w3.org/2000/svg">
<path d="M16.3815 31.4782C25.074 31.4782 32.1206 24.4316 32.1206 15.7391C32.1206 7.04664 25.074 0 16.3815 0C7.68904 0 0.642395 7.04664 0.642395 15.7391C0.642395 24.4316 7.68904 31.4782 16.3815 31.4782Z" fill="#EE0005"/>
<path d="M35.9361 31.4782C44.6286 31.4782 51.6752 24.4316 51.6752 15.7391C51.6752 7.04664 44.6286 0 35.9361 0C27.2436 0 20.197 7.04664 20.197 15.7391C20.197 24.4316 27.2436 31.4782 35.9361 31.4782Z" fill="#F9A000"/>
<path d="M20.1972 15.7389C20.1972 20.7364 22.5269 25.1894 26.1589 28.0724C29.7909 25.1893 32.1206 20.7364 32.1206 15.7389C32.1206 10.7414 29.791 6.28838 26.1589 3.40534C22.527 6.28862 20.1972 10.7415 20.1972 15.7389Z" fill="#FF6300"/>
</svg>
