<svg width="33" height="38" viewBox="0 0 33 38" fill="none" xmlns="http://www.w3.org/2000/svg">
<path d="M30.5503 24.9137C29.5475 27.6314 28.031 29.9944 26.0422 31.9365C23.7785 34.147 20.8144 35.9034 17.2319 37.1564C17.1144 37.1974 16.9917 37.231 16.8685 37.2557C16.7057 37.2879 16.54 37.3053 16.3758 37.3075H16.3436C16.1686 37.3075 15.9927 37.2899 15.8182 37.2557C15.6949 37.231 15.574 37.1974 15.457 37.1572C11.8703 35.9063 8.90242 34.1507 6.63645 31.9402C4.64685 29.9981 3.13061 27.6365 2.12927 24.9188C0.308463 19.9776 0.41207 14.5342 0.495468 10.16L0.496891 10.0928C0.513684 9.73162 0.5245 9.3522 0.530478 8.93322C0.560933 6.87617 2.19644 5.17434 4.25378 5.05963C8.54321 4.82026 11.8615 3.42128 14.6967 0.657769L14.7215 0.634999C15.1923 0.203209 15.7854 -0.00855898 16.3758 0.000264716C16.945 0.00766522 17.512 0.219148 17.966 0.634999L17.9902 0.657769C20.826 3.42128 24.1443 4.82026 28.4337 5.05963C30.4911 5.17434 32.1266 6.87617 32.157 8.93322C32.163 9.35505 32.1738 9.73389 32.1906 10.0928L32.1915 10.1213C32.2746 14.5038 32.3776 19.9579 30.5503 24.9137Z" fill="#00DD80"/>
<path d="M30.5502 24.9137C29.5474 27.6314 28.0309 29.9944 26.0422 31.9365C23.7785 34.147 20.8143 35.9034 17.2319 37.1564C17.1143 37.1974 16.9916 37.231 16.8684 37.2557C16.7056 37.2879 16.5399 37.3053 16.3757 37.3075V0.000263214C16.945 0.00766372 17.512 0.219147 17.966 0.634997L17.9901 0.657768C20.826 3.42128 24.1442 4.82026 28.4337 5.05963C30.491 5.17434 32.1265 6.87617 32.157 8.93322C32.1629 9.35505 32.1737 9.73389 32.1905 10.0928L32.1914 10.1213C32.2745 14.5038 32.3775 19.958 30.5502 24.9137Z" fill="#00AA63"/>
<path d="M25.6409 18.6538C25.6409 23.7695 21.4872 27.9337 16.3757 27.9519H16.343C11.2165 27.9519 7.04486 23.7806 7.04486 18.6538C7.04486 13.5272 11.2165 9.3559 16.343 9.3559H16.3757C21.4872 9.37411 25.6409 13.5383 25.6409 18.6538Z" fill="white"/>
<path d="M25.6408 18.6538C25.6408 23.7695 21.4872 27.9337 16.3757 27.9519V9.3559C21.4872 9.37411 25.6408 13.5383 25.6408 18.6538Z" fill="#E1EBF0"/>
<path d="M20.5633 17.3148L16.3757 21.5029L15.4709 22.4078C15.2571 22.6216 14.9767 22.7283 14.6967 22.7283C14.4163 22.7283 14.1362 22.6216 13.9222 22.4078L11.9767 20.4615C11.5492 20.034 11.5492 19.3414 11.9767 18.9136C12.4037 18.4861 13.097 18.4861 13.5245 18.9136L14.6967 20.0858L19.0154 15.767C19.4429 15.3392 20.1363 15.3392 20.5633 15.767C20.9908 16.1945 20.9908 16.8879 20.5633 17.3148Z" fill="#B4D2D7"/>
<path d="M20.5632 17.3148L16.3757 21.5029V18.4064L19.0154 15.767C19.4429 15.3392 20.1363 15.3392 20.5632 15.767C20.9908 16.1945 20.9908 16.8879 20.5632 17.3148Z" fill="#6FA5AA"/>
</svg>
