<svg width="47" height="32" viewBox="0 0 47 32" fill="none" xmlns="http://www.w3.org/2000/svg">
<path d="M46.0636 28.7799C46.0636 30.2701 44.8557 31.4781 43.3655 31.4781H3.11758C1.62746 31.4782 0.419495 30.2701 0.419495 28.7799V2.69818C0.419495 1.20797 1.62746 0 3.11758 0H43.3655C44.8558 0 46.0636 1.20805 46.0636 2.69818V28.7799Z" fill="white"/>
<path d="M10.5503 15.9205L9.4786 10.7792C9.2954 10.0702 8.76229 9.85931 8.09617 9.83141H3.18247L3.1387 10.0663C6.96577 10.9941 9.49804 13.2323 10.5503 15.9205Z" fill="#F79F1A"/>
<path d="M21.9359 9.93482H18.761L16.7782 21.5711H19.9478L21.9359 9.93482Z" fill="#059BBF"/>
<path d="M12.4853 21.5595L17.4786 9.94276H14.1184L11.0122 17.8795L10.6807 16.6811C10.0718 15.2395 8.33163 13.1646 6.2887 11.8584L9.12808 21.5634L12.4853 21.5595Z" fill="#059BBF"/>
<path d="M30.9913 17.7672C31.0031 16.4462 30.1548 15.4385 28.3269 14.6062C27.216 14.0686 26.539 13.7102 26.5471 13.1647C26.5471 12.6827 27.1205 12.1651 28.3629 12.1651C29.4024 12.1491 30.1509 12.3761 30.7364 12.6111L31.0232 12.7426L31.4535 10.2217C30.8242 9.98662 29.8404 9.73575 28.6101 9.73575C25.4759 9.73575 23.2697 11.3129 23.2497 13.5749C23.2298 15.2476 24.8269 16.1794 26.0295 16.7369C27.2639 17.3051 27.6781 17.6687 27.6702 18.1785C27.6622 18.9579 26.6864 19.3134 25.7745 19.3134C24.5041 19.3134 23.8311 19.1382 22.7872 18.7033L22.3816 18.517L21.936 21.1245C22.6762 21.448 24.046 21.7308 25.4679 21.7426C28.8009 21.7426 30.9674 20.1855 30.9913 17.7672Z" fill="#059BBF"/>
<path d="M34.7625 19.827C35.1249 19.827 38.3625 19.831 38.8247 19.831C38.9203 20.2362 39.211 21.5752 39.211 21.5752H42.1539L39.5852 9.94686H37.1361C36.3754 9.94686 35.8101 10.154 35.4755 10.9105L30.7644 21.5752H34.0979C34.0976 21.5752 34.6391 20.1418 34.7625 19.827ZM36.9368 14.1919C36.9211 14.2238 37.1998 13.519 37.3591 13.0809L37.574 14.0843C37.574 14.0843 38.1795 16.8642 38.3068 17.4456H35.6744C35.9373 16.7766 36.9368 14.1919 36.9368 14.1919Z" fill="#059BBF"/>
<path d="M43.3655 0H3.11758C1.62746 0 0.419495 1.20797 0.419495 2.69818V5.49851H46.0636V2.69818C46.0636 1.20797 44.8558 0 43.3655 0Z" fill="#059BBF"/>
<path d="M43.3655 31.4782H3.11758C1.62746 31.4782 0.419495 30.2702 0.419495 28.78V25.9797H46.0636V28.78C46.0636 30.2702 44.8558 31.4782 43.3655 31.4782Z" fill="#F79F1A"/>
<path opacity="0.15" d="M2.33771 28.7799V2.69818C2.33771 1.20797 3.54576 0 5.03597 0H3.11749C1.62746 0 0.419495 1.20797 0.419495 2.69818V28.78C0.419495 30.2702 1.62746 31.4782 3.11758 31.4782H5.03606C3.54585 31.4782 2.33771 30.2701 2.33771 28.7799Z" fill="#202121"/>
</svg>
